HIERARCHY
ROOT Hips
{
	OFFSET 0.000000 0.000000 0.000000
	CHANNELS 6 Xposition Yposition Zposition Zrotation Yrotation Xrotation 
	JOINT LHipJoint
	{
		OFFSET 0.000000 0.000000 0.000000
		CHANNELS 3 Zrotation Yrotation Xrotation
		JOINT LeftUpLeg
		{
			OFFSET 1.363060 -1.794630 0.839290
			CHANNELS 3 Zrotation Yrotation Xrotation
			JOINT LeftLeg
			{
				OFFSET 2.448110 -6.726130 0.000000
				CHANNELS 3 Zrotation Yrotation Xrotation
				JOINT LeftFoot
				{
					OFFSET 2.562200 -7.039590 0.000000
					CHANNELS 3 Zrotation Yrotation Xrotation
					JOINT LeftToeBase
					{
						OFFSET 0.157640 -0.433110 2.322550
						CHANNELS 3 Zrotation Yrotation Xrotation
						End Site
						{
							OFFSET 0.000000 0.000000 0.000000
						}
					}
				}
			}
		}
	}
	JOINT RHipJoint
	{
		OFFSET 0.000000 0.000000 0.000000
		CHANNELS 3 Zrotation Yrotation Xrotation
		JOINT RightUpLeg
		{
			OFFSET -1.305520 -1.794630 0.839290
			CHANNELS 3 Zrotation Yrotation Xrotation
			JOINT RightLeg
			{
				OFFSET -2.542530 -6.985550 0.000000
				CHANNELS 3 Zrotation Yrotation Xrotation
				JOINT RightFoot
				{
					OFFSET -2.568260 -7.056230 0.000000
					CHANNELS 3 Zrotation Yrotation Xrotation
					JOINT RightToeBase
					{
						OFFSET -0.164730 -0.452590 2.363150
						CHANNELS 3 Zrotation Yrotation Xrotation
						End Site
						{
							OFFSET 0.000000 0.000000 0.000000
						}
					}
				}
			}
		}
	}
}
MOTION
Frames: 14
Frame Time: 0.008333
3.414167 17.237614 2.959485 -103.509591 -82.332041 144.419444 -9.766056 -1.866917 -1.205223 -13.167333 2.493498 -49.270946 -3.435473 -1.448684 7.500462 0.962595 4.435178 -3.390584 0.813200 0.000001 -33.525700 5.731156 -0.543028 14.808837 -9.595991 21.176080 -112.099504 6.780009 4.851232 -9.328872 1.319737 1.329225 9.807530 -1.474500 -0.000000 -71.070700
3.417517 17.244093 2.957242 -103.833371 -82.439645 144.353729 -9.721635 -1.781307 -1.169187 -13.276541 2.462224 -48.647251 -3.426987 -1.482535 7.106704 0.962947 4.518015 -3.227676 0.836200 0.000000 -33.472500 5.686199 -0.380858 14.509494 -9.016632 21.058725 -109.814786 6.616066 5.009618 -10.388710 1.298748 1.350897 9.758870 -1.420500 -0.000001 -71.185500
3.418414 17.251706 2.955884 -103.708702 -82.595660 143.768114 -9.702674 -1.706814 -1.119796 -13.352792 2.403230 -47.933600 -3.407613 -1.517238 6.716833 0.964011 4.609724 -3.068829 0.859000 0.000000 -33.404700 5.646380 -0.239105 14.181559 -8.267917 20.908125 -107.292343 6.426397 5.157332 -11.424084 1.188578 0.983671 9.674273 -1.522100 0.000001 -71.388700
3.417203 17.260136 2.954493 -103.253596 -82.791837 142.784427 -9.699666 -1.637650 -1.063860 -13.406751 2.322056 -47.130455 -3.379320 -1.551256 6.336015 0.966940 4.715284 -2.918856 0.881500 0.000000 -33.331600 5.621784 -0.113225 13.826416 -7.366894 20.721529 -104.588129 6.216188 5.272051 -12.346545 1.005467 0.276396 9.593360 -1.756800 -0.000000 -71.623500
3.413964 17.268945 2.952625 -102.540909 -83.018162 141.483316 -9.707530 -1.570011 -1.004121 -13.448960 2.229103 -46.257839 -3.345501 -1.582636 5.977877 0.971008 4.827052 -2.785924 0.902200 0.000000 -33.258000 5.618427 -0.004365 13.450929 -6.335211 20.491299 -101.766319 5.996303 5.338098 -13.083344 0.770564 -0.689652 9.549630 -2.092300 -0.000000 -71.810000
3.408493 17.277734 2.949978 -101.633683 -83.265090 139.940169 -9.722253 -1.500041 -0.940691 -13.490060 2.133891 -45.340448 -3.309847 -1.610131 5.653667 0.975164 4.935576 -2.676713 0.919100 0.000000 -33.182500 5.640035 0.085296 13.063512 -5.203488 20.205729 -98.889411 5.778686 5.346010 -13.580362 0.508254 -1.808352 9.566261 -2.489899 0.000000 -71.871500
3.400751 17.286280 2.946188 -100.629211 -83.524742 138.262678 -9.738100 -1.423485 -0.872908 -13.535786 2.035821 -44.387105 -3.273547 -1.634408 5.356807 0.980695 5.048128 -2.589158 0.933599 -0.000000 -33.107400 5.689475 0.157566 12.668542 -4.019361 19.850472 -96.005047 5.570275 5.290750 -13.803171 0.242695 -2.966529 9.654417 -2.909399 0.000000 -71.754800
3.390537 17.294398 2.941112 -99.589135 -83.790917 136.524899 -9.751619 -1.337871 -0.798360 -13.589990 1.935134 -43.412301 -3.238060 -1.656214 5.082749 0.987964 5.166396 -2.521822 0.946301 0.000000 -33.029900 5.767054 0.212565 12.271824 -2.840687 19.413447 -93.155196 5.375450 5.172408 -13.736081 -0.004430 -4.057705 9.809165 -3.312101 0.000000 -71.449600
3.377897 17.302033 2.934792 -98.565906 -84.058745 134.786750 -9.760102 -1.242241 -0.714919 -13.653316 1.830041 -42.425631 -3.203803 -1.676448 4.823766 0.997595 5.294784 -2.470230 0.958600 0.000000 -32.947800 5.871039 0.251655 11.877687 -1.735183 18.890159 -90.368907 5.192933 4.994568 -13.379038 -0.217684 -4.999665 10.009391 -3.664900 -0.000000 -70.987401
3.362748 17.309195 2.927274 -97.587314 -84.324714 133.086741 -9.762055 -1.136836 -0.620512 -13.722905 1.716684 -41.432839 -3.170448 -1.696289 4.569704 1.010313 5.439046 -2.428713 0.971900 0.000000 -32.860500 5.998154 0.276593 11.490339 -0.774029 18.288196 -87.663142 5.016509 4.763970 -12.745607 -0.389620 -5.744228 10.221930 -3.944100 0.000000 -70.428900
3.345014 17.315933 2.918927 -96.633659 -84.583689 131.413473 -9.758717 -1.023998 -0.514238 -13.794872 1.598771 -40.446320 -3.138349 -1.715818 4.320072 1.025074 5.593115 -2.395039 0.986000 0.000000 -32.767400 6.142292 0.287419 11.115219 -0.016944 17.630486 -85.046069 4.838167 4.489559 -11.855997 -0.520807 -6.279118 10.405753 -4.137200 -0.000001 -69.849800
3.324951 17.322392 2.910046 -95.674554 -84.830615 129.740194 -9.751704 -0.906810 -0.396839 -13.863146 1.480358 -39.473086 -3.107156 -1.734921 4.073728 1.040966 5.752134 -2.366178 1.000600 -0.000000 -32.671700 6.296550 0.285048 10.756008 0.495640 16.952931 -82.515616 4.649040 4.180449 -10.730924 -0.617807 -6.620930 10.519569 -4.242899 0.000000 -69.314700
3.302713 17.328725 2.900893 -94.675620 -85.060710 128.037056 -9.742517 -0.788125 -0.269294 -13.919012 1.361736 -38.513278 -3.075597 -1.753868 3.825792 1.057836 5.916356 -2.338257 1.016000 -0.000000 -32.580800 6.454621 0.270801 10.414320 0.750775 16.298033 -80.062628 4.441988 3.844763 -9.386093 -0.690210 -6.803423 10.527328 -4.268200 -0.000000 -68.866200
3.278464 17.335000 2.891923 -93.543817 -85.267488 126.211082 -9.735766 -0.671540 -0.134747 -13.959047 1.261066 -37.579803 -3.045090 -1.770980 3.590747 1.072094 6.062412 -2.315247 1.028800 0.000000 -32.500501 6.608516 0.242492 10.091820 0.777318 15.707911 -77.678693 4.216728 3.489675 -7.831468 -0.746566 -6.862499 10.405798 -4.224200 -0.000000 -68.531500
